<mxfile host="app.diagrams.net" modified="2021-01-31T13:30:55.263Z" agent="5.0 (Macintosh; Intel Mac OS X 10_15_6) AppleWebKit/605.1.15 (KHTML, like Gecko) Version/14.0.2 Safari/605.1.15" etag="ePQgfPg3M4tJkpjzF_kC" version="14.2.9" type="github">
  <diagram id="C5RBs43oDa-KdzZeNtuy" name="Page-1">
    <mxGraphModel dx="946" dy="645" grid="1" gridSize="10" guides="1" tooltips="1" connect="1" arrows="1" fold="1" page="1" pageScale="1" pageWidth="827" pageHeight="1169" math="0" shadow="0">
      <root>
        <mxCell id="WIyWlLk6GJQsqaUBKTNV-0" />
        <mxCell id="WIyWlLk6GJQsqaUBKTNV-1" parent="WIyWlLk6GJQsqaUBKTNV-0" />
        <mxCell id="hDotApyRSMBB-NTmGald-0" value="START" style="ellipse;whiteSpace=wrap;html=1;" vertex="1" parent="WIyWlLk6GJQsqaUBKTNV-1">
          <mxGeometry x="374" y="30" width="120" height="80" as="geometry" />
        </mxCell>
        <mxCell id="hDotApyRSMBB-NTmGald-7" value="" style="edgeStyle=orthogonalEdgeStyle;rounded=0;orthogonalLoop=1;jettySize=auto;html=1;" edge="1" parent="WIyWlLk6GJQsqaUBKTNV-1" source="hDotApyRSMBB-NTmGald-1" target="hDotApyRSMBB-NTmGald-5">
          <mxGeometry relative="1" as="geometry" />
        </mxCell>
        <mxCell id="hDotApyRSMBB-NTmGald-1" value="모임주" style="rounded=0;whiteSpace=wrap;html=1;" vertex="1" parent="WIyWlLk6GJQsqaUBKTNV-1">
          <mxGeometry x="160" y="110" width="120" height="60" as="geometry" />
        </mxCell>
        <mxCell id="hDotApyRSMBB-NTmGald-20" value="" style="edgeStyle=orthogonalEdgeStyle;rounded=0;orthogonalLoop=1;jettySize=auto;html=1;" edge="1" parent="WIyWlLk6GJQsqaUBKTNV-1" source="hDotApyRSMBB-NTmGald-2">
          <mxGeometry relative="1" as="geometry">
            <mxPoint x="650" y="200" as="targetPoint" />
          </mxGeometry>
        </mxCell>
        <mxCell id="hDotApyRSMBB-NTmGald-2" value="초대멤버&lt;br&gt;(기가입 고객)" style="rounded=0;whiteSpace=wrap;html=1;" vertex="1" parent="WIyWlLk6GJQsqaUBKTNV-1">
          <mxGeometry x="590" y="110" width="120" height="60" as="geometry" />
        </mxCell>
        <mxCell id="hDotApyRSMBB-NTmGald-3" value="" style="endArrow=classic;html=1;exitX=0;exitY=0.5;exitDx=0;exitDy=0;entryX=0.5;entryY=0;entryDx=0;entryDy=0;" edge="1" parent="WIyWlLk6GJQsqaUBKTNV-1" source="hDotApyRSMBB-NTmGald-0" target="hDotApyRSMBB-NTmGald-1">
          <mxGeometry width="50" height="50" relative="1" as="geometry">
            <mxPoint x="400" y="340" as="sourcePoint" />
            <mxPoint x="450" y="290" as="targetPoint" />
            <Array as="points">
              <mxPoint x="220" y="70" />
            </Array>
          </mxGeometry>
        </mxCell>
        <mxCell id="hDotApyRSMBB-NTmGald-4" value="" style="endArrow=classic;html=1;exitX=1;exitY=0.5;exitDx=0;exitDy=0;entryX=0.5;entryY=0;entryDx=0;entryDy=0;" edge="1" parent="WIyWlLk6GJQsqaUBKTNV-1" source="hDotApyRSMBB-NTmGald-0" target="hDotApyRSMBB-NTmGald-2">
          <mxGeometry width="50" height="50" relative="1" as="geometry">
            <mxPoint x="400" y="340" as="sourcePoint" />
            <mxPoint x="450" y="290" as="targetPoint" />
            <Array as="points">
              <mxPoint x="650" y="70" />
            </Array>
          </mxGeometry>
        </mxCell>
        <mxCell id="hDotApyRSMBB-NTmGald-10" value="" style="edgeStyle=orthogonalEdgeStyle;rounded=0;orthogonalLoop=1;jettySize=auto;html=1;" edge="1" parent="WIyWlLk6GJQsqaUBKTNV-1" source="hDotApyRSMBB-NTmGald-5" target="hDotApyRSMBB-NTmGald-8">
          <mxGeometry relative="1" as="geometry" />
        </mxCell>
        <mxCell id="hDotApyRSMBB-NTmGald-5" value="모임통장 계좌관리" style="rounded=0;whiteSpace=wrap;html=1;" vertex="1" parent="WIyWlLk6GJQsqaUBKTNV-1">
          <mxGeometry x="160" y="200" width="120" height="60" as="geometry" />
        </mxCell>
        <mxCell id="hDotApyRSMBB-NTmGald-12" value="" style="edgeStyle=orthogonalEdgeStyle;rounded=0;orthogonalLoop=1;jettySize=auto;html=1;" edge="1" parent="WIyWlLk6GJQsqaUBKTNV-1" source="hDotApyRSMBB-NTmGald-8" target="hDotApyRSMBB-NTmGald-11">
          <mxGeometry relative="1" as="geometry" />
        </mxCell>
        <mxCell id="hDotApyRSMBB-NTmGald-14" value="" style="edgeStyle=orthogonalEdgeStyle;rounded=0;orthogonalLoop=1;jettySize=auto;html=1;" edge="1" parent="WIyWlLk6GJQsqaUBKTNV-1" source="hDotApyRSMBB-NTmGald-8" target="hDotApyRSMBB-NTmGald-13">
          <mxGeometry relative="1" as="geometry" />
        </mxCell>
        <mxCell id="hDotApyRSMBB-NTmGald-8" value="친구 초대" style="rounded=0;whiteSpace=wrap;html=1;" vertex="1" parent="WIyWlLk6GJQsqaUBKTNV-1">
          <mxGeometry x="160" y="290" width="120" height="60" as="geometry" />
        </mxCell>
        <mxCell id="hDotApyRSMBB-NTmGald-16" value="" style="edgeStyle=orthogonalEdgeStyle;rounded=0;orthogonalLoop=1;jettySize=auto;html=1;" edge="1" parent="WIyWlLk6GJQsqaUBKTNV-1" source="hDotApyRSMBB-NTmGald-11" target="hDotApyRSMBB-NTmGald-15">
          <mxGeometry relative="1" as="geometry" />
        </mxCell>
        <mxCell id="hDotApyRSMBB-NTmGald-11" value="친구 선택" style="whiteSpace=wrap;html=1;rounded=0;" vertex="1" parent="WIyWlLk6GJQsqaUBKTNV-1">
          <mxGeometry x="160" y="380" width="120" height="60" as="geometry" />
        </mxCell>
        <mxCell id="hDotApyRSMBB-NTmGald-13" value="채팅방 선택" style="whiteSpace=wrap;html=1;rounded=0;" vertex="1" parent="WIyWlLk6GJQsqaUBKTNV-1">
          <mxGeometry y="290" width="120" height="60" as="geometry" />
        </mxCell>
        <mxCell id="hDotApyRSMBB-NTmGald-19" value="" style="edgeStyle=orthogonalEdgeStyle;rounded=0;orthogonalLoop=1;jettySize=auto;html=1;entryX=0;entryY=0.5;entryDx=0;entryDy=0;exitX=1;exitY=0.5;exitDx=0;exitDy=0;" edge="1" parent="WIyWlLk6GJQsqaUBKTNV-1" source="hDotApyRSMBB-NTmGald-46" target="hDotApyRSMBB-NTmGald-42">
          <mxGeometry relative="1" as="geometry">
            <mxPoint x="590" y="240" as="targetPoint" />
            <Array as="points">
              <mxPoint x="450" y="600" />
              <mxPoint x="450" y="230" />
            </Array>
          </mxGeometry>
        </mxCell>
        <mxCell id="hDotApyRSMBB-NTmGald-47" value="" style="edgeStyle=orthogonalEdgeStyle;rounded=0;orthogonalLoop=1;jettySize=auto;html=1;" edge="1" parent="WIyWlLk6GJQsqaUBKTNV-1" source="hDotApyRSMBB-NTmGald-15" target="hDotApyRSMBB-NTmGald-46">
          <mxGeometry relative="1" as="geometry" />
        </mxCell>
        <mxCell id="hDotApyRSMBB-NTmGald-15" value="초대하기" style="whiteSpace=wrap;html=1;rounded=0;" vertex="1" parent="WIyWlLk6GJQsqaUBKTNV-1">
          <mxGeometry x="160" y="470" width="120" height="60" as="geometry" />
        </mxCell>
        <mxCell id="hDotApyRSMBB-NTmGald-17" value="" style="endArrow=classic;html=1;exitX=0.5;exitY=1;exitDx=0;exitDy=0;entryX=0;entryY=0.5;entryDx=0;entryDy=0;rounded=0;" edge="1" parent="WIyWlLk6GJQsqaUBKTNV-1" source="hDotApyRSMBB-NTmGald-13" target="hDotApyRSMBB-NTmGald-15">
          <mxGeometry width="50" height="50" relative="1" as="geometry">
            <mxPoint x="420" y="420" as="sourcePoint" />
            <mxPoint x="470" y="370" as="targetPoint" />
            <Array as="points">
              <mxPoint x="60" y="500" />
            </Array>
          </mxGeometry>
        </mxCell>
        <mxCell id="hDotApyRSMBB-NTmGald-25" value="" style="edgeStyle=orthogonalEdgeStyle;rounded=0;orthogonalLoop=1;jettySize=auto;html=1;" edge="1" parent="WIyWlLk6GJQsqaUBKTNV-1" source="hDotApyRSMBB-NTmGald-23" target="hDotApyRSMBB-NTmGald-24">
          <mxGeometry relative="1" as="geometry" />
        </mxCell>
        <mxCell id="hDotApyRSMBB-NTmGald-27" value="" style="edgeStyle=orthogonalEdgeStyle;rounded=0;orthogonalLoop=1;jettySize=auto;html=1;entryX=0.5;entryY=0;entryDx=0;entryDy=0;" edge="1" parent="WIyWlLk6GJQsqaUBKTNV-1" source="hDotApyRSMBB-NTmGald-23" target="hDotApyRSMBB-NTmGald-26">
          <mxGeometry relative="1" as="geometry">
            <Array as="points">
              <mxPoint x="787" y="440" />
            </Array>
          </mxGeometry>
        </mxCell>
        <mxCell id="hDotApyRSMBB-NTmGald-23" value="초대 수락" style="rhombus;whiteSpace=wrap;html=1;" vertex="1" parent="WIyWlLk6GJQsqaUBKTNV-1">
          <mxGeometry x="610" y="400" width="80" height="80" as="geometry" />
        </mxCell>
        <mxCell id="hDotApyRSMBB-NTmGald-30" value="" style="edgeStyle=orthogonalEdgeStyle;rounded=0;orthogonalLoop=1;jettySize=auto;html=1;entryX=0;entryY=0.5;entryDx=0;entryDy=0;" edge="1" parent="WIyWlLk6GJQsqaUBKTNV-1" source="hDotApyRSMBB-NTmGald-24" target="hDotApyRSMBB-NTmGald-26">
          <mxGeometry relative="1" as="geometry">
            <Array as="points">
              <mxPoint x="740" y="550" />
              <mxPoint x="740" y="550" />
            </Array>
          </mxGeometry>
        </mxCell>
        <mxCell id="hDotApyRSMBB-NTmGald-33" value="" style="edgeStyle=orthogonalEdgeStyle;rounded=0;orthogonalLoop=1;jettySize=auto;html=1;" edge="1" parent="WIyWlLk6GJQsqaUBKTNV-1" source="hDotApyRSMBB-NTmGald-24">
          <mxGeometry relative="1" as="geometry">
            <mxPoint x="650" y="620" as="targetPoint" />
          </mxGeometry>
        </mxCell>
        <mxCell id="hDotApyRSMBB-NTmGald-24" value="초대&amp;nbsp;유효기간&lt;br&gt;이내인지?" style="rhombus;whiteSpace=wrap;html=1;" vertex="1" parent="WIyWlLk6GJQsqaUBKTNV-1">
          <mxGeometry x="600" y="510" width="100" height="80" as="geometry" />
        </mxCell>
        <mxCell id="hDotApyRSMBB-NTmGald-26" value="END" style="ellipse;whiteSpace=wrap;html=1;" vertex="1" parent="WIyWlLk6GJQsqaUBKTNV-1">
          <mxGeometry x="747" y="525" width="80" height="50" as="geometry" />
        </mxCell>
        <mxCell id="hDotApyRSMBB-NTmGald-28" value="F" style="text;html=1;strokeColor=none;fillColor=none;align=center;verticalAlign=middle;whiteSpace=wrap;rounded=0;" vertex="1" parent="WIyWlLk6GJQsqaUBKTNV-1">
          <mxGeometry x="707" y="420" width="40" height="20" as="geometry" />
        </mxCell>
        <mxCell id="hDotApyRSMBB-NTmGald-29" value="T" style="text;html=1;strokeColor=none;fillColor=none;align=center;verticalAlign=middle;whiteSpace=wrap;rounded=0;" vertex="1" parent="WIyWlLk6GJQsqaUBKTNV-1">
          <mxGeometry x="650" y="480" width="40" height="20" as="geometry" />
        </mxCell>
        <mxCell id="hDotApyRSMBB-NTmGald-31" value="F" style="text;html=1;strokeColor=none;fillColor=none;align=center;verticalAlign=middle;whiteSpace=wrap;rounded=0;" vertex="1" parent="WIyWlLk6GJQsqaUBKTNV-1">
          <mxGeometry x="707" y="530" width="40" height="20" as="geometry" />
        </mxCell>
        <mxCell id="hDotApyRSMBB-NTmGald-39" value="" style="edgeStyle=orthogonalEdgeStyle;rounded=0;orthogonalLoop=1;jettySize=auto;html=1;" edge="1" parent="WIyWlLk6GJQsqaUBKTNV-1" source="hDotApyRSMBB-NTmGald-34" target="hDotApyRSMBB-NTmGald-38">
          <mxGeometry relative="1" as="geometry" />
        </mxCell>
        <mxCell id="hDotApyRSMBB-NTmGald-34" value="약관동의" style="rhombus;whiteSpace=wrap;html=1;" vertex="1" parent="WIyWlLk6GJQsqaUBKTNV-1">
          <mxGeometry x="610" y="620" width="80" height="80" as="geometry" />
        </mxCell>
        <mxCell id="hDotApyRSMBB-NTmGald-36" value="" style="endArrow=classic;html=1;exitX=1;exitY=0.5;exitDx=0;exitDy=0;entryX=0.5;entryY=1;entryDx=0;entryDy=0;rounded=0;" edge="1" parent="WIyWlLk6GJQsqaUBKTNV-1" source="hDotApyRSMBB-NTmGald-34" target="hDotApyRSMBB-NTmGald-26">
          <mxGeometry width="50" height="50" relative="1" as="geometry">
            <mxPoint x="460" y="660" as="sourcePoint" />
            <mxPoint x="510" y="610" as="targetPoint" />
            <Array as="points">
              <mxPoint x="787" y="660" />
            </Array>
          </mxGeometry>
        </mxCell>
        <mxCell id="hDotApyRSMBB-NTmGald-37" value="T" style="text;html=1;strokeColor=none;fillColor=none;align=center;verticalAlign=middle;whiteSpace=wrap;rounded=0;" vertex="1" parent="WIyWlLk6GJQsqaUBKTNV-1">
          <mxGeometry x="650" y="590" width="40" height="20" as="geometry" />
        </mxCell>
        <mxCell id="hDotApyRSMBB-NTmGald-41" value="" style="edgeStyle=orthogonalEdgeStyle;rounded=0;orthogonalLoop=1;jettySize=auto;html=1;" edge="1" parent="WIyWlLk6GJQsqaUBKTNV-1" source="hDotApyRSMBB-NTmGald-38" target="hDotApyRSMBB-NTmGald-40">
          <mxGeometry relative="1" as="geometry" />
        </mxCell>
        <mxCell id="hDotApyRSMBB-NTmGald-38" value="인증하기" style="whiteSpace=wrap;html=1;" vertex="1" parent="WIyWlLk6GJQsqaUBKTNV-1">
          <mxGeometry x="590" y="730" width="120" height="60" as="geometry" />
        </mxCell>
        <mxCell id="hDotApyRSMBB-NTmGald-60" value="" style="edgeStyle=orthogonalEdgeStyle;rounded=0;orthogonalLoop=1;jettySize=auto;html=1;" edge="1" parent="WIyWlLk6GJQsqaUBKTNV-1" source="hDotApyRSMBB-NTmGald-40" target="hDotApyRSMBB-NTmGald-59">
          <mxGeometry relative="1" as="geometry" />
        </mxCell>
        <mxCell id="hDotApyRSMBB-NTmGald-68" value="" style="edgeStyle=orthogonalEdgeStyle;rounded=0;orthogonalLoop=1;jettySize=auto;html=1;entryX=1;entryY=0.5;entryDx=0;entryDy=0;entryPerimeter=0;" edge="1" parent="WIyWlLk6GJQsqaUBKTNV-1" source="hDotApyRSMBB-NTmGald-40" target="hDotApyRSMBB-NTmGald-72">
          <mxGeometry relative="1" as="geometry">
            <mxPoint x="480" y="850" as="targetPoint" />
          </mxGeometry>
        </mxCell>
        <mxCell id="hDotApyRSMBB-NTmGald-40" value="가입 완료" style="whiteSpace=wrap;html=1;" vertex="1" parent="WIyWlLk6GJQsqaUBKTNV-1">
          <mxGeometry x="590" y="820" width="120" height="60" as="geometry" />
        </mxCell>
        <mxCell id="hDotApyRSMBB-NTmGald-53" value="" style="edgeStyle=orthogonalEdgeStyle;rounded=0;orthogonalLoop=1;jettySize=auto;html=1;" edge="1" parent="WIyWlLk6GJQsqaUBKTNV-1" source="hDotApyRSMBB-NTmGald-42" target="hDotApyRSMBB-NTmGald-52">
          <mxGeometry relative="1" as="geometry" />
        </mxCell>
        <mxCell id="hDotApyRSMBB-NTmGald-42" value="초대 메세지 확인" style="rounded=0;whiteSpace=wrap;html=1;" vertex="1" parent="WIyWlLk6GJQsqaUBKTNV-1">
          <mxGeometry x="590" y="200" width="120" height="60" as="geometry" />
        </mxCell>
        <mxCell id="hDotApyRSMBB-NTmGald-44" value="T" style="text;html=1;strokeColor=none;fillColor=none;align=center;verticalAlign=middle;whiteSpace=wrap;rounded=0;" vertex="1" parent="WIyWlLk6GJQsqaUBKTNV-1">
          <mxGeometry x="650" y="700" width="40" height="20" as="geometry" />
        </mxCell>
        <mxCell id="hDotApyRSMBB-NTmGald-45" value="F" style="text;html=1;strokeColor=none;fillColor=none;align=center;verticalAlign=middle;whiteSpace=wrap;rounded=0;" vertex="1" parent="WIyWlLk6GJQsqaUBKTNV-1">
          <mxGeometry x="710" y="640" width="40" height="20" as="geometry" />
        </mxCell>
        <mxCell id="hDotApyRSMBB-NTmGald-49" value="" style="edgeStyle=orthogonalEdgeStyle;rounded=0;orthogonalLoop=1;jettySize=auto;html=1;" edge="1" parent="WIyWlLk6GJQsqaUBKTNV-1" source="hDotApyRSMBB-NTmGald-46" target="hDotApyRSMBB-NTmGald-48">
          <mxGeometry relative="1" as="geometry" />
        </mxCell>
        <mxCell id="hDotApyRSMBB-NTmGald-46" value="*멤버 수가&lt;br&gt;100명을&lt;br&gt;초과 하는지?" style="rhombus;whiteSpace=wrap;html=1;rounded=0;" vertex="1" parent="WIyWlLk6GJQsqaUBKTNV-1">
          <mxGeometry x="160" y="560" width="120" height="80" as="geometry" />
        </mxCell>
        <mxCell id="hDotApyRSMBB-NTmGald-48" value="END" style="ellipse;whiteSpace=wrap;html=1;rounded=0;" vertex="1" parent="WIyWlLk6GJQsqaUBKTNV-1">
          <mxGeometry x="160" y="670" width="120" height="80" as="geometry" />
        </mxCell>
        <mxCell id="hDotApyRSMBB-NTmGald-50" value="F" style="text;html=1;strokeColor=none;fillColor=none;align=center;verticalAlign=middle;whiteSpace=wrap;rounded=0;" vertex="1" parent="WIyWlLk6GJQsqaUBKTNV-1">
          <mxGeometry x="280" y="580" width="40" height="20" as="geometry" />
        </mxCell>
        <mxCell id="hDotApyRSMBB-NTmGald-51" value="T" style="text;html=1;strokeColor=none;fillColor=none;align=center;verticalAlign=middle;whiteSpace=wrap;rounded=0;" vertex="1" parent="WIyWlLk6GJQsqaUBKTNV-1">
          <mxGeometry x="220" y="640" width="40" height="20" as="geometry" />
        </mxCell>
        <mxCell id="hDotApyRSMBB-NTmGald-54" value="" style="edgeStyle=orthogonalEdgeStyle;rounded=0;orthogonalLoop=1;jettySize=auto;html=1;" edge="1" parent="WIyWlLk6GJQsqaUBKTNV-1" source="hDotApyRSMBB-NTmGald-52" target="hDotApyRSMBB-NTmGald-23">
          <mxGeometry relative="1" as="geometry" />
        </mxCell>
        <mxCell id="hDotApyRSMBB-NTmGald-52" value="모임 수가&lt;br&gt;30개 &lt;br&gt;이하인지?" style="rhombus;whiteSpace=wrap;html=1;" vertex="1" parent="WIyWlLk6GJQsqaUBKTNV-1">
          <mxGeometry x="590" y="290" width="120" height="80" as="geometry" />
        </mxCell>
        <mxCell id="hDotApyRSMBB-NTmGald-55" value="" style="endArrow=classic;html=1;exitX=1;exitY=0.5;exitDx=0;exitDy=0;entryX=0.5;entryY=0;entryDx=0;entryDy=0;rounded=0;" edge="1" parent="WIyWlLk6GJQsqaUBKTNV-1" source="hDotApyRSMBB-NTmGald-52" target="hDotApyRSMBB-NTmGald-26">
          <mxGeometry width="50" height="50" relative="1" as="geometry">
            <mxPoint x="520" y="490" as="sourcePoint" />
            <mxPoint x="570" y="440" as="targetPoint" />
            <Array as="points">
              <mxPoint x="787" y="330" />
            </Array>
          </mxGeometry>
        </mxCell>
        <mxCell id="hDotApyRSMBB-NTmGald-56" value="F" style="text;html=1;strokeColor=none;fillColor=none;align=center;verticalAlign=middle;whiteSpace=wrap;rounded=0;" vertex="1" parent="WIyWlLk6GJQsqaUBKTNV-1">
          <mxGeometry x="707" y="310" width="40" height="20" as="geometry" />
        </mxCell>
        <mxCell id="hDotApyRSMBB-NTmGald-57" value="T" style="text;html=1;strokeColor=none;fillColor=none;align=center;verticalAlign=middle;whiteSpace=wrap;rounded=0;" vertex="1" parent="WIyWlLk6GJQsqaUBKTNV-1">
          <mxGeometry x="650" y="370" width="40" height="20" as="geometry" />
        </mxCell>
        <mxCell id="hDotApyRSMBB-NTmGald-58" value="&lt;font style=&quot;font-size: 10px&quot;&gt;*이 때의 멤버 수는 &amp;nbsp;현재 모임통장에 가입한 멤버와 초대에 응답하지 않은 멤버 수를 합한 것을 의미&lt;/font&gt;" style="text;html=1;strokeColor=none;fillColor=none;align=center;verticalAlign=middle;whiteSpace=wrap;rounded=0;" vertex="1" parent="WIyWlLk6GJQsqaUBKTNV-1">
          <mxGeometry x="50" y="560" width="150" height="20" as="geometry" />
        </mxCell>
        <mxCell id="hDotApyRSMBB-NTmGald-59" value="END" style="ellipse;whiteSpace=wrap;html=1;rounded=0;" vertex="1" parent="WIyWlLk6GJQsqaUBKTNV-1">
          <mxGeometry x="590" y="910" width="120" height="80" as="geometry" />
        </mxCell>
        <mxCell id="hDotApyRSMBB-NTmGald-62" value="" style="edgeStyle=orthogonalEdgeStyle;rounded=0;orthogonalLoop=1;jettySize=auto;html=1;" edge="1" parent="WIyWlLk6GJQsqaUBKTNV-1" source="hDotApyRSMBB-NTmGald-61" target="hDotApyRSMBB-NTmGald-52">
          <mxGeometry relative="1" as="geometry" />
        </mxCell>
        <mxCell id="hDotApyRSMBB-NTmGald-61" value="계좌정보" style="shape=cylinder3;whiteSpace=wrap;html=1;boundedLbl=1;backgroundOutline=1;size=15;" vertex="1" parent="WIyWlLk6GJQsqaUBKTNV-1">
          <mxGeometry x="460" y="295" width="80" height="70" as="geometry" />
        </mxCell>
        <mxCell id="hDotApyRSMBB-NTmGald-65" value="" style="edgeStyle=orthogonalEdgeStyle;rounded=0;orthogonalLoop=1;jettySize=auto;html=1;" edge="1" parent="WIyWlLk6GJQsqaUBKTNV-1" source="hDotApyRSMBB-NTmGald-64" target="hDotApyRSMBB-NTmGald-24">
          <mxGeometry relative="1" as="geometry" />
        </mxCell>
        <mxCell id="hDotApyRSMBB-NTmGald-64" value="초대정보" style="shape=cylinder3;whiteSpace=wrap;html=1;boundedLbl=1;backgroundOutline=1;size=15;" vertex="1" parent="WIyWlLk6GJQsqaUBKTNV-1">
          <mxGeometry x="470" y="515" width="80" height="70" as="geometry" />
        </mxCell>
        <mxCell id="hDotApyRSMBB-NTmGald-66" value="" style="endArrow=classic;html=1;entryX=0;entryY=0.5;entryDx=0;entryDy=0;entryPerimeter=0;exitX=1;exitY=0.5;exitDx=0;exitDy=0;rounded=0;" edge="1" parent="WIyWlLk6GJQsqaUBKTNV-1" source="hDotApyRSMBB-NTmGald-46" target="hDotApyRSMBB-NTmGald-64">
          <mxGeometry width="50" height="50" relative="1" as="geometry">
            <mxPoint x="430" y="620" as="sourcePoint" />
            <mxPoint x="480" y="570" as="targetPoint" />
            <Array as="points">
              <mxPoint x="340" y="600" />
              <mxPoint x="340" y="550" />
            </Array>
          </mxGeometry>
        </mxCell>
        <mxCell id="hDotApyRSMBB-NTmGald-72" value="멤버정보" style="shape=cylinder3;whiteSpace=wrap;html=1;boundedLbl=1;backgroundOutline=1;size=15;" vertex="1" parent="WIyWlLk6GJQsqaUBKTNV-1">
          <mxGeometry x="50" y="815" width="80" height="70" as="geometry" />
        </mxCell>
        <mxCell id="hDotApyRSMBB-NTmGald-73" value="" style="endArrow=classic;html=1;exitX=0.5;exitY=0;exitDx=0;exitDy=0;exitPerimeter=0;entryX=0;entryY=0.5;entryDx=0;entryDy=0;rounded=0;" edge="1" parent="WIyWlLk6GJQsqaUBKTNV-1" source="hDotApyRSMBB-NTmGald-72" target="hDotApyRSMBB-NTmGald-46">
          <mxGeometry width="50" height="50" relative="1" as="geometry">
            <mxPoint x="330" y="680" as="sourcePoint" />
            <mxPoint x="380" y="630" as="targetPoint" />
            <Array as="points">
              <mxPoint x="90" y="600" />
            </Array>
          </mxGeometry>
        </mxCell>
      </root>
    </mxGraphModel>
  </diagram>
</mxfile>
